<?xml version="1.0" encoding="UTF-8" standalone="no"?>
<!DOCTYPE svg PUBLIC "-//W3C//DTD SVG 1.1//EN" "http://www.w3.org/Graphics/SVG/1.1/DTD/svg11.dtd">
<svg width="100%" height="100%" viewBox="0 0 1536 32" version="1.1" xmlns="http://www.w3.org/2000/svg" xmlns:xlink="http://www.w3.org/1999/xlink" xml:space="preserve" xmlns:serif="http://www.serif.com/" style="fill-rule:evenodd;clip-rule:evenodd;stroke-linejoin:round;stroke-miterlimit:1.5;">
    <g transform="matrix(56.1053,0,0,1.30637,-2223.16,-1.60784)">
        <rect x="39.625" y="1.231" width="27.377" height="24.495" style="fill:white;fill-opacity:0;"/>
    </g>
    <g transform="matrix(18,0,0,18,8.89,22.3)">
        <path d="M0.084,0L0.236,0L0.236,-0.445L0.575,0L0.706,0L0.706,-0.7L0.554,-0.7L0.554,-0.269L0.226,-0.7L0.084,-0.7L0.084,0Z" style="fill-rule:nonzero;"/>
    </g>
    <g transform="matrix(18,0,0,18,394.366,22.3)">
        <path d="M0.333,0.01C0.484,0.01 0.59,-0.068 0.59,-0.207L0.59,-0.209C0.59,-0.331 0.51,-0.382 0.368,-0.419C0.247,-0.45 0.217,-0.465 0.217,-0.511L0.217,-0.513C0.217,-0.547 0.248,-0.574 0.307,-0.574C0.366,-0.574 0.427,-0.548 0.489,-0.505L0.569,-0.621C0.498,-0.678 0.411,-0.71 0.309,-0.71C0.166,-0.71 0.064,-0.626 0.064,-0.499L0.064,-0.497C0.064,-0.358 0.155,-0.319 0.296,-0.283C0.413,-0.253 0.437,-0.233 0.437,-0.194L0.437,-0.192C0.437,-0.151 0.399,-0.126 0.336,-0.126C0.256,-0.126 0.19,-0.159 0.127,-0.211L0.036,-0.102C0.12,-0.027 0.227,0.01 0.333,0.01Z" style="fill-rule:nonzero;"/>
    </g>
    <g transform="matrix(18,0,0,18,201.691,22.3)">
        <path d="M0.084,0L0.617,0L0.617,-0.137L0.237,-0.137L0.237,-0.284L0.567,-0.284L0.567,-0.421L0.237,-0.421L0.237,-0.563L0.612,-0.563L0.612,-0.7L0.084,-0.7L0.084,0Z" style="fill-rule:nonzero;"/>
    </g>
    <g transform="matrix(1,0,0,0.227648,-192.015,-21.3173)">
        <path d="M240.015,141.3L240.015,158.871" style="fill:none;stroke:black;stroke-width:2.76px;"/>
    </g>
    <g transform="matrix(1,0,0,1,-146.85,-138.854)">
        <g transform="matrix(6,0,0,6,191.799,159.933)">
            <path d="M0.178,0L0.33,0L0.33,-0.705L0.225,-0.705L0.024,-0.645L0.056,-0.519L0.178,-0.549L0.178,0Z" style="fill-rule:nonzero;"/>
        </g>
        <g transform="matrix(6,0,0,6,194.331,159.933)">
            <path d="M0.305,0.012C0.466,0.012 0.571,-0.082 0.571,-0.23L0.571,-0.232C0.571,-0.39 0.462,-0.456 0.326,-0.456C0.287,-0.456 0.262,-0.451 0.234,-0.444L0.242,-0.565L0.54,-0.565L0.54,-0.7L0.11,-0.7L0.09,-0.355L0.179,-0.296C0.212,-0.31 0.252,-0.322 0.296,-0.322C0.369,-0.322 0.42,-0.287 0.42,-0.227L0.42,-0.225C0.42,-0.163 0.375,-0.128 0.303,-0.128C0.241,-0.128 0.189,-0.156 0.136,-0.204L0.043,-0.093C0.111,-0.028 0.193,0.012 0.305,0.012Z" style="fill-rule:nonzero;"/>
        </g>
    </g>
    <g transform="matrix(1,0,0,0.227648,-96.0153,-21.3173)">
        <path d="M240.015,141.3L240.015,158.871" style="fill:none;stroke:black;stroke-width:2.76px;"/>
    </g>
    <g transform="matrix(1,0,0,1,-50.9552,-138.854)">
        <g transform="matrix(6,0,0,6,190.779,159.933)">
            <path d="M0.339,0.012C0.491,0.012 0.606,-0.087 0.606,-0.23L0.606,-0.232C0.606,-0.378 0.499,-0.455 0.36,-0.455C0.296,-0.455 0.252,-0.435 0.215,-0.41C0.22,-0.471 0.251,-0.572 0.356,-0.572C0.416,-0.572 0.453,-0.551 0.499,-0.516L0.58,-0.635C0.518,-0.684 0.456,-0.712 0.361,-0.712C0.152,-0.712 0.054,-0.546 0.054,-0.33L0.054,-0.328C0.054,-0.189 0.086,-0.114 0.137,-0.063C0.186,-0.014 0.248,0.012 0.339,0.012ZM0.333,-0.12C0.257,-0.12 0.211,-0.165 0.211,-0.224L0.211,-0.226C0.211,-0.285 0.255,-0.327 0.331,-0.327C0.407,-0.327 0.453,-0.284 0.453,-0.225L0.453,-0.223C0.453,-0.163 0.409,-0.12 0.333,-0.12Z" style="fill-rule:nonzero;"/>
        </g>
        <g transform="matrix(6,0,0,6,194.751,159.933)">
            <path d="M0.364,0.012C0.551,0.012 0.676,-0.147 0.676,-0.35L0.676,-0.352C0.676,-0.555 0.551,-0.712 0.366,-0.712C0.18,-0.712 0.054,-0.553 0.054,-0.35L0.054,-0.348C0.054,-0.145 0.177,0.012 0.364,0.012ZM0.366,-0.127C0.273,-0.127 0.212,-0.222 0.212,-0.35L0.212,-0.352C0.212,-0.48 0.272,-0.573 0.364,-0.573C0.456,-0.573 0.518,-0.477 0.518,-0.35L0.518,-0.348C0.518,-0.221 0.459,-0.127 0.366,-0.127Z" style="fill-rule:nonzero;"/>
        </g>
    </g>
    <g transform="matrix(1,0,0,0.227648,-64.0153,-21.3173)">
        <path d="M240.015,141.3L240.015,158.871" style="fill:none;stroke:black;stroke-width:2.76px;"/>
    </g>
    <g transform="matrix(1,0,0,1,-18.9822,-138.854)">
        <g transform="matrix(6,0,0,6,191.283,159.933)">
            <path d="M0.084,0L0.258,0L0.572,-0.584L0.572,-0.7L0.068,-0.7L0.068,-0.567L0.397,-0.567L0.084,0Z" style="fill-rule:nonzero;"/>
        </g>
        <g transform="matrix(6,0,0,6,194.847,159.933)">
            <path d="M0.305,0.012C0.466,0.012 0.571,-0.082 0.571,-0.23L0.571,-0.232C0.571,-0.39 0.462,-0.456 0.326,-0.456C0.287,-0.456 0.262,-0.451 0.234,-0.444L0.242,-0.565L0.54,-0.565L0.54,-0.7L0.11,-0.7L0.09,-0.355L0.179,-0.296C0.212,-0.31 0.252,-0.322 0.296,-0.322C0.369,-0.322 0.42,-0.287 0.42,-0.227L0.42,-0.225C0.42,-0.163 0.375,-0.128 0.303,-0.128C0.241,-0.128 0.189,-0.156 0.136,-0.204L0.043,-0.093C0.111,-0.028 0.193,0.012 0.305,0.012Z" style="fill-rule:nonzero;"/>
        </g>
    </g>
    <g transform="matrix(1,0,0,0.227648,-0.0152554,-21.3173)">
        <path d="M240.015,141.3L240.015,158.871" style="fill:none;stroke:black;stroke-width:2.76px;"/>
    </g>
    <g transform="matrix(1,0,0,1,45.1498,-138.854)">
        <g transform="matrix(6,0,0,6,189.609,159.933)">
            <path d="M0.178,0L0.33,0L0.33,-0.705L0.225,-0.705L0.024,-0.645L0.056,-0.519L0.178,-0.549L0.178,0Z" style="fill-rule:nonzero;"/>
        </g>
        <g transform="matrix(6,0,0,6,192.141,159.933)">
            <path d="M0.364,0.012C0.551,0.012 0.676,-0.147 0.676,-0.35L0.676,-0.352C0.676,-0.555 0.551,-0.712 0.366,-0.712C0.18,-0.712 0.054,-0.553 0.054,-0.35L0.054,-0.348C0.054,-0.145 0.177,0.012 0.364,0.012ZM0.366,-0.127C0.273,-0.127 0.212,-0.222 0.212,-0.35L0.212,-0.352C0.212,-0.48 0.272,-0.573 0.364,-0.573C0.456,-0.573 0.518,-0.477 0.518,-0.35L0.518,-0.348C0.518,-0.221 0.459,-0.127 0.366,-0.127Z" style="fill-rule:nonzero;"/>
        </g>
        <g transform="matrix(6,0,0,6,196.521,159.933)">
            <path d="M0.305,0.012C0.466,0.012 0.571,-0.082 0.571,-0.23L0.571,-0.232C0.571,-0.39 0.462,-0.456 0.326,-0.456C0.287,-0.456 0.262,-0.451 0.234,-0.444L0.242,-0.565L0.54,-0.565L0.54,-0.7L0.11,-0.7L0.09,-0.355L0.179,-0.296C0.212,-0.31 0.252,-0.322 0.296,-0.322C0.369,-0.322 0.42,-0.287 0.42,-0.227L0.42,-0.225C0.42,-0.163 0.375,-0.128 0.303,-0.128C0.241,-0.128 0.189,-0.156 0.136,-0.204L0.043,-0.093C0.111,-0.028 0.193,0.012 0.305,0.012Z" style="fill-rule:nonzero;"/>
        </g>
    </g>
    <g transform="matrix(1,0,0,0.227648,31.9847,-21.3173)">
        <path d="M240.015,141.3L240.015,158.871" style="fill:none;stroke:black;stroke-width:2.76px;"/>
    </g>
    <g transform="matrix(1,0,0,1,77.1348,-138.854)">
        <g transform="matrix(6,0,0,6,189.63,159.933)">
            <path d="M0.178,0L0.33,0L0.33,-0.705L0.225,-0.705L0.024,-0.645L0.056,-0.519L0.178,-0.549L0.178,0Z" style="fill-rule:nonzero;"/>
        </g>
        <g transform="matrix(6,0,0,6,192.162,159.933)">
            <path d="M0.049,0L0.567,0L0.567,-0.133L0.262,-0.133L0.376,-0.221C0.5,-0.317 0.56,-0.375 0.56,-0.492L0.56,-0.494C0.56,-0.625 0.464,-0.71 0.319,-0.71C0.194,-0.71 0.127,-0.659 0.058,-0.565L0.166,-0.478C0.218,-0.542 0.255,-0.572 0.309,-0.572C0.364,-0.572 0.403,-0.54 0.403,-0.481C0.403,-0.423 0.369,-0.385 0.282,-0.313L0.049,-0.122L0.049,0Z" style="fill-rule:nonzero;"/>
        </g>
        <g transform="matrix(6,0,0,6,195.9,159.933)">
            <path d="M0.364,0.012C0.551,0.012 0.676,-0.147 0.676,-0.35L0.676,-0.352C0.676,-0.555 0.551,-0.712 0.366,-0.712C0.18,-0.712 0.054,-0.553 0.054,-0.35L0.054,-0.348C0.054,-0.145 0.177,0.012 0.364,0.012ZM0.366,-0.127C0.273,-0.127 0.212,-0.222 0.212,-0.35L0.212,-0.352C0.212,-0.48 0.272,-0.573 0.364,-0.573C0.456,-0.573 0.518,-0.477 0.518,-0.35L0.518,-0.348C0.518,-0.221 0.459,-0.127 0.366,-0.127Z" style="fill-rule:nonzero;"/>
        </g>
    </g>
    <g transform="matrix(1,0,0,0.227648,95.9847,-21.3173)">
        <path d="M240.015,141.3L240.015,158.871" style="fill:none;stroke:black;stroke-width:2.76px;"/>
    </g>
    <g transform="matrix(1,0,0,1,141.135,-138.854)">
        <g transform="matrix(6,0,0,6,189.609,159.933)">
            <path d="M0.178,0L0.33,0L0.33,-0.705L0.225,-0.705L0.024,-0.645L0.056,-0.519L0.178,-0.549L0.178,0Z" style="fill-rule:nonzero;"/>
        </g>
        <g transform="matrix(6,0,0,6,192.141,159.933)">
            <path d="M0.305,0.012C0.466,0.012 0.571,-0.082 0.571,-0.23L0.571,-0.232C0.571,-0.39 0.462,-0.456 0.326,-0.456C0.287,-0.456 0.262,-0.451 0.234,-0.444L0.242,-0.565L0.54,-0.565L0.54,-0.7L0.11,-0.7L0.09,-0.355L0.179,-0.296C0.212,-0.31 0.252,-0.322 0.296,-0.322C0.369,-0.322 0.42,-0.287 0.42,-0.227L0.42,-0.225C0.42,-0.163 0.375,-0.128 0.303,-0.128C0.241,-0.128 0.189,-0.156 0.136,-0.204L0.043,-0.093C0.111,-0.028 0.193,0.012 0.305,0.012Z" style="fill-rule:nonzero;"/>
        </g>
        <g transform="matrix(6,0,0,6,195.921,159.933)">
            <path d="M0.364,0.012C0.551,0.012 0.676,-0.147 0.676,-0.35L0.676,-0.352C0.676,-0.555 0.551,-0.712 0.366,-0.712C0.18,-0.712 0.054,-0.553 0.054,-0.35L0.054,-0.348C0.054,-0.145 0.177,0.012 0.364,0.012ZM0.366,-0.127C0.273,-0.127 0.212,-0.222 0.212,-0.35L0.212,-0.352C0.212,-0.48 0.272,-0.573 0.364,-0.573C0.456,-0.573 0.518,-0.477 0.518,-0.35L0.518,-0.348C0.518,-0.221 0.459,-0.127 0.366,-0.127Z" style="fill-rule:nonzero;"/>
        </g>
    </g>
    <g transform="matrix(1,0,0,0.227648,127.985,-21.3173)">
        <path d="M240.015,141.3L240.015,158.871" style="fill:none;stroke:black;stroke-width:2.76px;"/>
    </g>
    <g transform="matrix(1,0,0,1,173.15,-138.854)">
        <g transform="matrix(6,0,0,6,189.813,159.933)">
            <path d="M0.178,0L0.33,0L0.33,-0.705L0.225,-0.705L0.024,-0.645L0.056,-0.519L0.178,-0.549L0.178,0Z" style="fill-rule:nonzero;"/>
        </g>
        <g transform="matrix(6,0,0,6,192.345,159.933)">
            <path d="M0.339,0.012C0.491,0.012 0.606,-0.087 0.606,-0.23L0.606,-0.232C0.606,-0.378 0.499,-0.455 0.36,-0.455C0.296,-0.455 0.252,-0.435 0.215,-0.41C0.22,-0.471 0.251,-0.572 0.356,-0.572C0.416,-0.572 0.453,-0.551 0.499,-0.516L0.58,-0.635C0.518,-0.684 0.456,-0.712 0.361,-0.712C0.152,-0.712 0.054,-0.546 0.054,-0.33L0.054,-0.328C0.054,-0.189 0.086,-0.114 0.137,-0.063C0.186,-0.014 0.248,0.012 0.339,0.012ZM0.333,-0.12C0.257,-0.12 0.211,-0.165 0.211,-0.224L0.211,-0.226C0.211,-0.285 0.255,-0.327 0.331,-0.327C0.407,-0.327 0.453,-0.284 0.453,-0.225L0.453,-0.223C0.453,-0.163 0.409,-0.12 0.333,-0.12Z" style="fill-rule:nonzero;"/>
        </g>
        <g transform="matrix(6,0,0,6,196.317,159.933)">
            <path d="M0.305,0.012C0.466,0.012 0.571,-0.082 0.571,-0.23L0.571,-0.232C0.571,-0.39 0.462,-0.456 0.326,-0.456C0.287,-0.456 0.262,-0.451 0.234,-0.444L0.242,-0.565L0.54,-0.565L0.54,-0.7L0.11,-0.7L0.09,-0.355L0.179,-0.296C0.212,-0.31 0.252,-0.322 0.296,-0.322C0.369,-0.322 0.42,-0.287 0.42,-0.227L0.42,-0.225C0.42,-0.163 0.375,-0.128 0.303,-0.128C0.241,-0.128 0.189,-0.156 0.136,-0.204L0.043,-0.093C0.111,-0.028 0.193,0.012 0.305,0.012Z" style="fill-rule:nonzero;"/>
        </g>
    </g>
    <g transform="matrix(1,0,0,0.227648,191.985,-21.3173)">
        <path d="M240.015,141.3L240.015,158.871" style="fill:none;stroke:black;stroke-width:2.76px;"/>
    </g>
    <g transform="matrix(1,0,0,1,237.15,-138.854)">
        <g transform="matrix(6,0,0,6,189.828,159.933)">
            <path d="M0.178,0L0.33,0L0.33,-0.705L0.225,-0.705L0.024,-0.645L0.056,-0.519L0.178,-0.549L0.178,0Z" style="fill-rule:nonzero;"/>
        </g>
        <g transform="matrix(6,0,0,6,192.36,159.933)">
            <path d="M0.306,-0.128C0.247,-0.128 0.204,-0.147 0.153,-0.188L0.072,-0.071C0.131,-0.022 0.2,0.012 0.302,0.012C0.501,0.012 0.608,-0.143 0.608,-0.37L0.608,-0.372C0.608,-0.51 0.575,-0.586 0.525,-0.636C0.472,-0.689 0.417,-0.712 0.323,-0.712C0.165,-0.712 0.056,-0.608 0.056,-0.467L0.056,-0.465C0.056,-0.323 0.154,-0.239 0.306,-0.239C0.366,-0.239 0.412,-0.257 0.448,-0.287C0.442,-0.227 0.412,-0.128 0.306,-0.128ZM0.331,-0.367C0.255,-0.367 0.209,-0.41 0.209,-0.472L0.209,-0.474C0.209,-0.536 0.252,-0.58 0.328,-0.58C0.405,-0.58 0.451,-0.535 0.451,-0.473L0.451,-0.471C0.451,-0.411 0.407,-0.367 0.331,-0.367Z" style="fill-rule:nonzero;"/>
        </g>
        <g transform="matrix(6,0,0,6,196.302,159.933)">
            <path d="M0.305,0.012C0.466,0.012 0.571,-0.082 0.571,-0.23L0.571,-0.232C0.571,-0.39 0.462,-0.456 0.326,-0.456C0.287,-0.456 0.262,-0.451 0.234,-0.444L0.242,-0.565L0.54,-0.565L0.54,-0.7L0.11,-0.7L0.09,-0.355L0.179,-0.296C0.212,-0.31 0.252,-0.322 0.296,-0.322C0.369,-0.322 0.42,-0.287 0.42,-0.227L0.42,-0.225C0.42,-0.163 0.375,-0.128 0.303,-0.128C0.241,-0.128 0.189,-0.156 0.136,-0.204L0.043,-0.093C0.111,-0.028 0.193,0.012 0.305,0.012Z" style="fill-rule:nonzero;"/>
        </g>
    </g>
    <g transform="matrix(1,0,0,0.227648,223.985,-21.3173)">
        <path d="M240.015,141.3L240.015,158.871" style="fill:none;stroke:black;stroke-width:2.76px;"/>
    </g>
    <g transform="matrix(1,0,0,1,269.06,-138.854)">
        <g transform="matrix(6,0,0,6,189.63,159.933)">
            <path d="M0.049,0L0.567,0L0.567,-0.133L0.262,-0.133L0.376,-0.221C0.5,-0.317 0.56,-0.375 0.56,-0.492L0.56,-0.494C0.56,-0.625 0.464,-0.71 0.319,-0.71C0.194,-0.71 0.127,-0.659 0.058,-0.565L0.166,-0.478C0.218,-0.542 0.255,-0.572 0.309,-0.572C0.364,-0.572 0.403,-0.54 0.403,-0.481C0.403,-0.423 0.369,-0.385 0.282,-0.313L0.049,-0.122L0.049,0Z" style="fill-rule:nonzero;"/>
        </g>
        <g transform="matrix(6,0,0,6,193.368,159.933)">
            <path d="M0.178,0L0.33,0L0.33,-0.705L0.225,-0.705L0.024,-0.645L0.056,-0.519L0.178,-0.549L0.178,0Z" style="fill-rule:nonzero;"/>
        </g>
        <g transform="matrix(6,0,0,6,195.9,159.933)">
            <path d="M0.364,0.012C0.551,0.012 0.676,-0.147 0.676,-0.35L0.676,-0.352C0.676,-0.555 0.551,-0.712 0.366,-0.712C0.18,-0.712 0.054,-0.553 0.054,-0.35L0.054,-0.348C0.054,-0.145 0.177,0.012 0.364,0.012ZM0.366,-0.127C0.273,-0.127 0.212,-0.222 0.212,-0.35L0.212,-0.352C0.212,-0.48 0.272,-0.573 0.364,-0.573C0.456,-0.573 0.518,-0.477 0.518,-0.35L0.518,-0.348C0.518,-0.221 0.459,-0.127 0.366,-0.127Z" style="fill-rule:nonzero;"/>
        </g>
    </g>
    <g transform="matrix(1,0,0,0.227648,287.985,-21.3173)">
        <path d="M240.015,141.3L240.015,158.871" style="fill:none;stroke:black;stroke-width:2.76px;"/>
    </g>
    <g transform="matrix(1,0,0,1,333.06,-138.854)">
        <g transform="matrix(6,0,0,6,188.874,159.933)">
            <path d="M0.049,0L0.567,0L0.567,-0.133L0.262,-0.133L0.376,-0.221C0.5,-0.317 0.56,-0.375 0.56,-0.492L0.56,-0.494C0.56,-0.625 0.464,-0.71 0.319,-0.71C0.194,-0.71 0.127,-0.659 0.058,-0.565L0.166,-0.478C0.218,-0.542 0.255,-0.572 0.309,-0.572C0.364,-0.572 0.403,-0.54 0.403,-0.481C0.403,-0.423 0.369,-0.385 0.282,-0.313L0.049,-0.122L0.049,0Z" style="fill-rule:nonzero;"/>
        </g>
        <g transform="matrix(6,0,0,6,192.522,159.933)">
            <path d="M0.398,0L0.545,0L0.545,-0.151L0.639,-0.151L0.639,-0.276L0.545,-0.276L0.545,-0.705L0.415,-0.705L0.031,-0.26L0.056,-0.151L0.398,-0.151L0.398,0ZM0.212,-0.276L0.398,-0.494L0.398,-0.276L0.212,-0.276Z" style="fill-rule:nonzero;"/>
        </g>
        <g transform="matrix(6,0,0,6,196.656,159.933)">
            <path d="M0.364,0.012C0.551,0.012 0.676,-0.147 0.676,-0.35L0.676,-0.352C0.676,-0.555 0.551,-0.712 0.366,-0.712C0.18,-0.712 0.054,-0.553 0.054,-0.35L0.054,-0.348C0.054,-0.145 0.177,0.012 0.364,0.012ZM0.366,-0.127C0.273,-0.127 0.212,-0.222 0.212,-0.35L0.212,-0.352C0.212,-0.48 0.272,-0.573 0.364,-0.573C0.456,-0.573 0.518,-0.477 0.518,-0.35L0.518,-0.348C0.518,-0.221 0.459,-0.127 0.366,-0.127Z" style="fill-rule:nonzero;"/>
        </g>
    </g>
    <g transform="matrix(1,0,0,0.227648,319.985,-21.3173)">
        <path d="M240.015,141.3L240.015,158.871" style="fill:none;stroke:black;stroke-width:2.76px;"/>
    </g>
    <g transform="matrix(1,0,0,1,365.075,-138.854)">
        <g transform="matrix(6,0,0,6,189.306,159.933)">
            <path d="M0.049,0L0.567,0L0.567,-0.133L0.262,-0.133L0.376,-0.221C0.5,-0.317 0.56,-0.375 0.56,-0.492L0.56,-0.494C0.56,-0.625 0.464,-0.71 0.319,-0.71C0.194,-0.71 0.127,-0.659 0.058,-0.565L0.166,-0.478C0.218,-0.542 0.255,-0.572 0.309,-0.572C0.364,-0.572 0.403,-0.54 0.403,-0.481C0.403,-0.423 0.369,-0.385 0.282,-0.313L0.049,-0.122L0.049,0Z" style="fill-rule:nonzero;"/>
        </g>
        <g transform="matrix(6,0,0,6,193.044,159.933)">
            <path d="M0.305,0.012C0.466,0.012 0.571,-0.082 0.571,-0.23L0.571,-0.232C0.571,-0.39 0.462,-0.456 0.326,-0.456C0.287,-0.456 0.262,-0.451 0.234,-0.444L0.242,-0.565L0.54,-0.565L0.54,-0.7L0.11,-0.7L0.09,-0.355L0.179,-0.296C0.212,-0.31 0.252,-0.322 0.296,-0.322C0.369,-0.322 0.42,-0.287 0.42,-0.227L0.42,-0.225C0.42,-0.163 0.375,-0.128 0.303,-0.128C0.241,-0.128 0.189,-0.156 0.136,-0.204L0.043,-0.093C0.111,-0.028 0.193,0.012 0.305,0.012Z" style="fill-rule:nonzero;"/>
        </g>
        <g transform="matrix(6,0,0,6,196.824,159.933)">
            <path d="M0.305,0.012C0.466,0.012 0.571,-0.082 0.571,-0.23L0.571,-0.232C0.571,-0.39 0.462,-0.456 0.326,-0.456C0.287,-0.456 0.262,-0.451 0.234,-0.444L0.242,-0.565L0.54,-0.565L0.54,-0.7L0.11,-0.7L0.09,-0.355L0.179,-0.296C0.212,-0.31 0.252,-0.322 0.296,-0.322C0.369,-0.322 0.42,-0.287 0.42,-0.227L0.42,-0.225C0.42,-0.163 0.375,-0.128 0.303,-0.128C0.241,-0.128 0.189,-0.156 0.136,-0.204L0.043,-0.093C0.111,-0.028 0.193,0.012 0.305,0.012Z" style="fill-rule:nonzero;"/>
        </g>
    </g>
    <g transform="matrix(1,0,0,0.227648,383.985,-21.3173)">
        <path d="M240.015,141.3L240.015,158.871" style="fill:none;stroke:black;stroke-width:2.76px;"/>
    </g>
    <g transform="matrix(1,0,0,1,429.075,-138.854)">
        <g transform="matrix(6,0,0,6,189.306,159.933)">
            <path d="M0.049,0L0.567,0L0.567,-0.133L0.262,-0.133L0.376,-0.221C0.5,-0.317 0.56,-0.375 0.56,-0.492L0.56,-0.494C0.56,-0.625 0.464,-0.71 0.319,-0.71C0.194,-0.71 0.127,-0.659 0.058,-0.565L0.166,-0.478C0.218,-0.542 0.255,-0.572 0.309,-0.572C0.364,-0.572 0.403,-0.54 0.403,-0.481C0.403,-0.423 0.369,-0.385 0.282,-0.313L0.049,-0.122L0.049,0Z" style="fill-rule:nonzero;"/>
        </g>
        <g transform="matrix(6,0,0,6,193.044,159.933)">
            <path d="M0.315,0.01C0.47,0.01 0.585,-0.066 0.585,-0.196L0.585,-0.198C0.585,-0.281 0.543,-0.326 0.472,-0.363C0.526,-0.396 0.561,-0.441 0.561,-0.516L0.561,-0.518C0.561,-0.626 0.463,-0.71 0.315,-0.71C0.167,-0.71 0.069,-0.625 0.069,-0.518L0.069,-0.516C0.069,-0.441 0.104,-0.396 0.158,-0.363C0.084,-0.329 0.045,-0.279 0.045,-0.194L0.045,-0.192C0.045,-0.07 0.16,0.01 0.315,0.01ZM0.315,-0.414C0.254,-0.414 0.215,-0.451 0.215,-0.5L0.215,-0.502C0.215,-0.545 0.252,-0.583 0.315,-0.583C0.378,-0.583 0.415,-0.544 0.415,-0.501L0.415,-0.499C0.415,-0.45 0.376,-0.414 0.315,-0.414ZM0.315,-0.117C0.239,-0.117 0.194,-0.156 0.194,-0.204L0.194,-0.206C0.194,-0.26 0.245,-0.292 0.315,-0.292C0.385,-0.292 0.436,-0.26 0.436,-0.206L0.436,-0.204C0.436,-0.155 0.391,-0.117 0.315,-0.117Z" style="fill-rule:nonzero;"/>
        </g>
        <g transform="matrix(6,0,0,6,196.824,159.933)">
            <path d="M0.305,0.012C0.466,0.012 0.571,-0.082 0.571,-0.23L0.571,-0.232C0.571,-0.39 0.462,-0.456 0.326,-0.456C0.287,-0.456 0.262,-0.451 0.234,-0.444L0.242,-0.565L0.54,-0.565L0.54,-0.7L0.11,-0.7L0.09,-0.355L0.179,-0.296C0.212,-0.31 0.252,-0.322 0.296,-0.322C0.369,-0.322 0.42,-0.287 0.42,-0.227L0.42,-0.225C0.42,-0.163 0.375,-0.128 0.303,-0.128C0.241,-0.128 0.189,-0.156 0.136,-0.204L0.043,-0.093C0.111,-0.028 0.193,0.012 0.305,0.012Z" style="fill-rule:nonzero;"/>
        </g>
    </g>
    <g transform="matrix(1,0,0,0.227648,415.985,-21.3173)">
        <path d="M240.015,141.3L240.015,158.871" style="fill:none;stroke:black;stroke-width:2.76px;"/>
    </g>
    <g transform="matrix(1,0,0,1,461.093,-138.854)">
        <g transform="matrix(6,0,0,6,188.712,159.933)">
            <path d="M0.311,0.012C0.467,0.012 0.563,-0.085 0.563,-0.217L0.563,-0.219C0.563,-0.349 0.47,-0.399 0.375,-0.415L0.552,-0.584L0.552,-0.7L0.079,-0.7L0.079,-0.568L0.354,-0.568L0.187,-0.4L0.211,-0.302L0.275,-0.302C0.361,-0.302 0.412,-0.27 0.412,-0.213L0.412,-0.211C0.412,-0.159 0.371,-0.126 0.313,-0.126C0.242,-0.126 0.192,-0.156 0.144,-0.21L0.038,-0.109C0.098,-0.038 0.185,0.012 0.311,0.012Z" style="fill-rule:nonzero;"/>
        </g>
        <g transform="matrix(6,0,0,6,192.438,159.933)">
            <path d="M0.364,0.012C0.551,0.012 0.676,-0.147 0.676,-0.35L0.676,-0.352C0.676,-0.555 0.551,-0.712 0.366,-0.712C0.18,-0.712 0.054,-0.553 0.054,-0.35L0.054,-0.348C0.054,-0.145 0.177,0.012 0.364,0.012ZM0.366,-0.127C0.273,-0.127 0.212,-0.222 0.212,-0.35L0.212,-0.352C0.212,-0.48 0.272,-0.573 0.364,-0.573C0.456,-0.573 0.518,-0.477 0.518,-0.35L0.518,-0.348C0.518,-0.221 0.459,-0.127 0.366,-0.127Z" style="fill-rule:nonzero;"/>
        </g>
        <g transform="matrix(6,0,0,6,196.818,159.933)">
            <path d="M0.364,0.012C0.551,0.012 0.676,-0.147 0.676,-0.35L0.676,-0.352C0.676,-0.555 0.551,-0.712 0.366,-0.712C0.18,-0.712 0.054,-0.553 0.054,-0.35L0.054,-0.348C0.054,-0.145 0.177,0.012 0.364,0.012ZM0.366,-0.127C0.273,-0.127 0.212,-0.222 0.212,-0.35L0.212,-0.352C0.212,-0.48 0.272,-0.573 0.364,-0.573C0.456,-0.573 0.518,-0.477 0.518,-0.35L0.518,-0.348C0.518,-0.221 0.459,-0.127 0.366,-0.127Z" style="fill-rule:nonzero;"/>
        </g>
    </g>
    <g transform="matrix(1,0,0,0.227648,447.985,-21.3173)">
        <path d="M240.015,141.3L240.015,158.871" style="fill:none;stroke:black;stroke-width:2.76px;"/>
    </g>
    <g transform="matrix(1,0,0,1,492.883,-138.854)">
        <g transform="matrix(6,0,0,6,189.219,159.933)">
            <path d="M0.084,0L0.236,0L0.236,-0.445L0.575,0L0.706,0L0.706,-0.7L0.554,-0.7L0.554,-0.269L0.226,-0.7L0.084,-0.7L0.084,0Z" style="fill-rule:nonzero;"/>
        </g>
        <g transform="matrix(6,0,0,6,193.959,159.933)">
            <path d="M0.269,0.005L0.403,0.005L0.561,-0.453L0.719,0.005L0.853,0.005L1.092,-0.7L0.931,-0.7L0.786,-0.226L0.629,-0.702L0.497,-0.702L0.34,-0.226L0.195,-0.7L0.03,-0.7L0.269,0.005Z" style="fill-rule:nonzero;"/>
        </g>
    </g>
    <g transform="matrix(1,0,0,0.227648,479.985,-21.3173)">
        <path d="M240.015,141.3L240.015,158.871" style="fill:none;stroke:black;stroke-width:2.76px;"/>
    </g>
    <g transform="matrix(1,0,0,1,525.093,-138.854)">
        <g transform="matrix(6,0,0,6,189.039,159.933)">
            <path d="M0.311,0.012C0.467,0.012 0.563,-0.085 0.563,-0.217L0.563,-0.219C0.563,-0.349 0.47,-0.399 0.375,-0.415L0.552,-0.584L0.552,-0.7L0.079,-0.7L0.079,-0.568L0.354,-0.568L0.187,-0.4L0.211,-0.302L0.275,-0.302C0.361,-0.302 0.412,-0.27 0.412,-0.213L0.412,-0.211C0.412,-0.159 0.371,-0.126 0.313,-0.126C0.242,-0.126 0.192,-0.156 0.144,-0.21L0.038,-0.109C0.098,-0.038 0.185,0.012 0.311,0.012Z" style="fill-rule:nonzero;"/>
        </g>
        <g transform="matrix(6,0,0,6,192.765,159.933)">
            <path d="M0.311,0.012C0.467,0.012 0.563,-0.085 0.563,-0.217L0.563,-0.219C0.563,-0.349 0.47,-0.399 0.375,-0.415L0.552,-0.584L0.552,-0.7L0.079,-0.7L0.079,-0.568L0.354,-0.568L0.187,-0.4L0.211,-0.302L0.275,-0.302C0.361,-0.302 0.412,-0.27 0.412,-0.213L0.412,-0.211C0.412,-0.159 0.371,-0.126 0.313,-0.126C0.242,-0.126 0.192,-0.156 0.144,-0.21L0.038,-0.109C0.098,-0.038 0.185,0.012 0.311,0.012Z" style="fill-rule:nonzero;"/>
        </g>
        <g transform="matrix(6,0,0,6,196.491,159.933)">
            <path d="M0.364,0.012C0.551,0.012 0.676,-0.147 0.676,-0.35L0.676,-0.352C0.676,-0.555 0.551,-0.712 0.366,-0.712C0.18,-0.712 0.054,-0.553 0.054,-0.35L0.054,-0.348C0.054,-0.145 0.177,0.012 0.364,0.012ZM0.366,-0.127C0.273,-0.127 0.212,-0.222 0.212,-0.35L0.212,-0.352C0.212,-0.48 0.272,-0.573 0.364,-0.573C0.456,-0.573 0.518,-0.477 0.518,-0.35L0.518,-0.348C0.518,-0.221 0.459,-0.127 0.366,-0.127Z" style="fill-rule:nonzero;"/>
        </g>
    </g>
    <g transform="matrix(1,0,0,0.227648,511.985,-21.3173)">
        <path d="M240.015,141.3L240.015,158.871" style="fill:none;stroke:black;stroke-width:2.76px;"/>
    </g>
    <g transform="matrix(1,0,0,1,557.108,-138.854)">
        <g transform="matrix(6,0,0,6,189.135,159.933)">
            <path d="M0.311,0.012C0.467,0.012 0.563,-0.085 0.563,-0.217L0.563,-0.219C0.563,-0.349 0.47,-0.399 0.375,-0.415L0.552,-0.584L0.552,-0.7L0.079,-0.7L0.079,-0.568L0.354,-0.568L0.187,-0.4L0.211,-0.302L0.275,-0.302C0.361,-0.302 0.412,-0.27 0.412,-0.213L0.412,-0.211C0.412,-0.159 0.371,-0.126 0.313,-0.126C0.242,-0.126 0.192,-0.156 0.144,-0.21L0.038,-0.109C0.098,-0.038 0.185,0.012 0.311,0.012Z" style="fill-rule:nonzero;"/>
        </g>
        <g transform="matrix(6,0,0,6,192.861,159.933)">
            <path d="M0.398,0L0.545,0L0.545,-0.151L0.639,-0.151L0.639,-0.276L0.545,-0.276L0.545,-0.705L0.415,-0.705L0.031,-0.26L0.056,-0.151L0.398,-0.151L0.398,0ZM0.212,-0.276L0.398,-0.494L0.398,-0.276L0.212,-0.276Z" style="fill-rule:nonzero;"/>
        </g>
        <g transform="matrix(6,0,0,6,196.995,159.933)">
            <path d="M0.305,0.012C0.466,0.012 0.571,-0.082 0.571,-0.23L0.571,-0.232C0.571,-0.39 0.462,-0.456 0.326,-0.456C0.287,-0.456 0.262,-0.451 0.234,-0.444L0.242,-0.565L0.54,-0.565L0.54,-0.7L0.11,-0.7L0.09,-0.355L0.179,-0.296C0.212,-0.31 0.252,-0.322 0.296,-0.322C0.369,-0.322 0.42,-0.287 0.42,-0.227L0.42,-0.225C0.42,-0.163 0.375,-0.128 0.303,-0.128C0.241,-0.128 0.189,-0.156 0.136,-0.204L0.043,-0.093C0.111,-0.028 0.193,0.012 0.305,0.012Z" style="fill-rule:nonzero;"/>
        </g>
    </g>
    <g transform="matrix(1,0,0,0.227648,255.985,-21.3173)">
        <path d="M240.015,141.3L240.015,158.871" style="fill:none;stroke:black;stroke-width:2.76px;"/>
    </g>
    <g transform="matrix(1,0,0,1,301.027,-138.854)">
        <g transform="matrix(6,0,0,6,189.744,159.933)">
            <path d="M0.333,0.01C0.484,0.01 0.59,-0.068 0.59,-0.207L0.59,-0.209C0.59,-0.331 0.51,-0.382 0.368,-0.419C0.247,-0.45 0.217,-0.465 0.217,-0.511L0.217,-0.513C0.217,-0.547 0.248,-0.574 0.307,-0.574C0.366,-0.574 0.427,-0.548 0.489,-0.505L0.569,-0.621C0.498,-0.678 0.411,-0.71 0.309,-0.71C0.166,-0.71 0.064,-0.626 0.064,-0.499L0.064,-0.497C0.064,-0.358 0.155,-0.319 0.296,-0.283C0.413,-0.253 0.437,-0.233 0.437,-0.194L0.437,-0.192C0.437,-0.151 0.399,-0.126 0.336,-0.126C0.256,-0.126 0.19,-0.159 0.127,-0.211L0.036,-0.102C0.12,-0.027 0.227,0.01 0.333,0.01Z" style="fill-rule:nonzero;"/>
        </g>
        <g transform="matrix(6,0,0,6,193.434,159.933)">
            <path d="M0.269,0.005L0.403,0.005L0.561,-0.453L0.719,0.005L0.853,0.005L1.092,-0.7L0.931,-0.7L0.786,-0.226L0.629,-0.702L0.497,-0.702L0.34,-0.226L0.195,-0.7L0.03,-0.7L0.269,0.005Z" style="fill-rule:nonzero;"/>
        </g>
    </g>
    <g transform="matrix(1,0,0,0.227648,63.9847,-21.3173)">
        <path d="M240.015,141.3L240.015,158.871" style="fill:none;stroke:black;stroke-width:2.76px;"/>
    </g>
    <g transform="matrix(1,0,0,1,109.096,-138.854)">
        <g transform="matrix(6,0,0,6,191.025,159.933)">
            <path d="M0.333,0.01C0.484,0.01 0.59,-0.068 0.59,-0.207L0.59,-0.209C0.59,-0.331 0.51,-0.382 0.368,-0.419C0.247,-0.45 0.217,-0.465 0.217,-0.511L0.217,-0.513C0.217,-0.547 0.248,-0.574 0.307,-0.574C0.366,-0.574 0.427,-0.548 0.489,-0.505L0.569,-0.621C0.498,-0.678 0.411,-0.71 0.309,-0.71C0.166,-0.71 0.064,-0.626 0.064,-0.499L0.064,-0.497C0.064,-0.358 0.155,-0.319 0.296,-0.283C0.413,-0.253 0.437,-0.233 0.437,-0.194L0.437,-0.192C0.437,-0.151 0.399,-0.126 0.336,-0.126C0.256,-0.126 0.19,-0.159 0.127,-0.211L0.036,-0.102C0.12,-0.027 0.227,0.01 0.333,0.01Z" style="fill-rule:nonzero;"/>
        </g>
        <g transform="matrix(6,0,0,6,194.865,159.933)">
            <path d="M0.084,0L0.617,0L0.617,-0.137L0.237,-0.137L0.237,-0.284L0.567,-0.284L0.567,-0.421L0.237,-0.421L0.237,-0.563L0.612,-0.563L0.612,-0.7L0.084,-0.7L0.084,0Z" style="fill-rule:nonzero;"/>
        </g>
    </g>
    <g transform="matrix(1,0,0,0.227648,-128.015,-21.3173)">
        <path d="M240.015,141.3L240.015,158.871" style="fill:none;stroke:black;stroke-width:2.76px;"/>
    </g>
    <g transform="matrix(1,0,0,1,-83.0482,-138.854)">
        <g transform="matrix(6,0,0,6,190.575,159.933)">
            <path d="M0.084,0L0.236,0L0.236,-0.445L0.575,0L0.706,0L0.706,-0.7L0.554,-0.7L0.554,-0.269L0.226,-0.7L0.084,-0.7L0.084,0Z" style="fill-rule:nonzero;"/>
        </g>
        <g transform="matrix(6,0,0,6,195.315,159.933)">
            <path d="M0.084,0L0.617,0L0.617,-0.137L0.237,-0.137L0.237,-0.284L0.567,-0.284L0.567,-0.421L0.237,-0.421L0.237,-0.563L0.612,-0.563L0.612,-0.7L0.084,-0.7L0.084,0Z" style="fill-rule:nonzero;"/>
        </g>
    </g>
    <g transform="matrix(1,0,0,0.227648,-160.015,-21.3173)">
        <path d="M240.015,141.3L240.015,158.871" style="fill:none;stroke:black;stroke-width:2.76px;"/>
    </g>
    <g transform="matrix(1,0,0,1,-115.804,-138.854)">
        <g transform="matrix(6,0,0,6,191.799,159.933)">
            <path d="M0.311,0.012C0.467,0.012 0.563,-0.085 0.563,-0.217L0.563,-0.219C0.563,-0.349 0.47,-0.399 0.375,-0.415L0.552,-0.584L0.552,-0.7L0.079,-0.7L0.079,-0.568L0.354,-0.568L0.187,-0.4L0.211,-0.302L0.275,-0.302C0.361,-0.302 0.412,-0.27 0.412,-0.213L0.412,-0.211C0.412,-0.159 0.371,-0.126 0.313,-0.126C0.242,-0.126 0.192,-0.156 0.144,-0.21L0.038,-0.109C0.098,-0.038 0.185,0.012 0.311,0.012Z" style="fill-rule:nonzero;"/>
        </g>
        <g transform="matrix(6,0,0,6,195.525,159.933)">
            <path d="M0.364,0.012C0.551,0.012 0.676,-0.147 0.676,-0.35L0.676,-0.352C0.676,-0.555 0.551,-0.712 0.366,-0.712C0.18,-0.712 0.054,-0.553 0.054,-0.35L0.054,-0.348C0.054,-0.145 0.177,0.012 0.364,0.012ZM0.366,-0.127C0.273,-0.127 0.212,-0.222 0.212,-0.35L0.212,-0.352C0.212,-0.48 0.272,-0.573 0.364,-0.573C0.456,-0.573 0.518,-0.477 0.518,-0.35L0.518,-0.348C0.518,-0.221 0.459,-0.127 0.366,-0.127Z" style="fill-rule:nonzero;"/>
        </g>
    </g>
    <g transform="matrix(18,0,0,18,581.902,22.273)">
        <path d="M0.269,0.005L0.403,0.005L0.561,-0.453L0.719,0.005L0.853,0.005L1.092,-0.7L0.931,-0.7L0.786,-0.226L0.629,-0.702L0.497,-0.702L0.34,-0.226L0.195,-0.7L0.03,-0.7L0.269,0.005Z" style="fill-rule:nonzero;"/>
    </g>
    <g transform="matrix(18,0,0,18,776.89,22.3)">
        <path d="M0.084,0L0.236,0L0.236,-0.445L0.575,0L0.706,0L0.706,-0.7L0.554,-0.7L0.554,-0.269L0.226,-0.7L0.084,-0.7L0.084,0Z" style="fill-rule:nonzero;"/>
    </g>
    <g transform="matrix(18,0,0,18,1162.37,22.3)">
        <path d="M0.333,0.01C0.484,0.01 0.59,-0.068 0.59,-0.207L0.59,-0.209C0.59,-0.331 0.51,-0.382 0.368,-0.419C0.247,-0.45 0.217,-0.465 0.217,-0.511L0.217,-0.513C0.217,-0.547 0.248,-0.574 0.307,-0.574C0.366,-0.574 0.427,-0.548 0.489,-0.505L0.569,-0.621C0.498,-0.678 0.411,-0.71 0.309,-0.71C0.166,-0.71 0.064,-0.626 0.064,-0.499L0.064,-0.497C0.064,-0.358 0.155,-0.319 0.296,-0.283C0.413,-0.253 0.437,-0.233 0.437,-0.194L0.437,-0.192C0.437,-0.151 0.399,-0.126 0.336,-0.126C0.256,-0.126 0.19,-0.159 0.127,-0.211L0.036,-0.102C0.12,-0.027 0.227,0.01 0.333,0.01Z" style="fill-rule:nonzero;"/>
    </g>
    <g transform="matrix(18,0,0,18,969.691,22.3)">
        <path d="M0.084,0L0.617,0L0.617,-0.137L0.237,-0.137L0.237,-0.284L0.567,-0.284L0.567,-0.421L0.237,-0.421L0.237,-0.563L0.612,-0.563L0.612,-0.7L0.084,-0.7L0.084,0Z" style="fill-rule:nonzero;"/>
    </g>
    <g transform="matrix(1,0,0,0.227648,575.985,-21.3173)">
        <path d="M240.015,141.3L240.015,158.871" style="fill:none;stroke:black;stroke-width:2.76px;"/>
    </g>
    <g transform="matrix(1,0,0,1,621.15,-138.854)">
        <g transform="matrix(6,0,0,6,191.799,159.933)">
            <path d="M0.178,0L0.33,0L0.33,-0.705L0.225,-0.705L0.024,-0.645L0.056,-0.519L0.178,-0.549L0.178,0Z" style="fill-rule:nonzero;"/>
        </g>
        <g transform="matrix(6,0,0,6,194.331,159.933)">
            <path d="M0.305,0.012C0.466,0.012 0.571,-0.082 0.571,-0.23L0.571,-0.232C0.571,-0.39 0.462,-0.456 0.326,-0.456C0.287,-0.456 0.262,-0.451 0.234,-0.444L0.242,-0.565L0.54,-0.565L0.54,-0.7L0.11,-0.7L0.09,-0.355L0.179,-0.296C0.212,-0.31 0.252,-0.322 0.296,-0.322C0.369,-0.322 0.42,-0.287 0.42,-0.227L0.42,-0.225C0.42,-0.163 0.375,-0.128 0.303,-0.128C0.241,-0.128 0.189,-0.156 0.136,-0.204L0.043,-0.093C0.111,-0.028 0.193,0.012 0.305,0.012Z" style="fill-rule:nonzero;"/>
        </g>
    </g>
    <g transform="matrix(1,0,0,0.227648,671.985,-21.3173)">
        <path d="M240.015,141.3L240.015,158.871" style="fill:none;stroke:black;stroke-width:2.76px;"/>
    </g>
    <g transform="matrix(1,0,0,1,717.045,-138.854)">
        <g transform="matrix(6,0,0,6,190.779,159.933)">
            <path d="M0.339,0.012C0.491,0.012 0.606,-0.087 0.606,-0.23L0.606,-0.232C0.606,-0.378 0.499,-0.455 0.36,-0.455C0.296,-0.455 0.252,-0.435 0.215,-0.41C0.22,-0.471 0.251,-0.572 0.356,-0.572C0.416,-0.572 0.453,-0.551 0.499,-0.516L0.58,-0.635C0.518,-0.684 0.456,-0.712 0.361,-0.712C0.152,-0.712 0.054,-0.546 0.054,-0.33L0.054,-0.328C0.054,-0.189 0.086,-0.114 0.137,-0.063C0.186,-0.014 0.248,0.012 0.339,0.012ZM0.333,-0.12C0.257,-0.12 0.211,-0.165 0.211,-0.224L0.211,-0.226C0.211,-0.285 0.255,-0.327 0.331,-0.327C0.407,-0.327 0.453,-0.284 0.453,-0.225L0.453,-0.223C0.453,-0.163 0.409,-0.12 0.333,-0.12Z" style="fill-rule:nonzero;"/>
        </g>
        <g transform="matrix(6,0,0,6,194.751,159.933)">
            <path d="M0.364,0.012C0.551,0.012 0.676,-0.147 0.676,-0.35L0.676,-0.352C0.676,-0.555 0.551,-0.712 0.366,-0.712C0.18,-0.712 0.054,-0.553 0.054,-0.35L0.054,-0.348C0.054,-0.145 0.177,0.012 0.364,0.012ZM0.366,-0.127C0.273,-0.127 0.212,-0.222 0.212,-0.35L0.212,-0.352C0.212,-0.48 0.272,-0.573 0.364,-0.573C0.456,-0.573 0.518,-0.477 0.518,-0.35L0.518,-0.348C0.518,-0.221 0.459,-0.127 0.366,-0.127Z" style="fill-rule:nonzero;"/>
        </g>
    </g>
    <g transform="matrix(1,0,0,0.227648,703.985,-21.3173)">
        <path d="M240.015,141.3L240.015,158.871" style="fill:none;stroke:black;stroke-width:2.76px;"/>
    </g>
    <g transform="matrix(1,0,0,1,749.018,-138.854)">
        <g transform="matrix(6,0,0,6,191.283,159.933)">
            <path d="M0.084,0L0.258,0L0.572,-0.584L0.572,-0.7L0.068,-0.7L0.068,-0.567L0.397,-0.567L0.084,0Z" style="fill-rule:nonzero;"/>
        </g>
        <g transform="matrix(6,0,0,6,194.847,159.933)">
            <path d="M0.305,0.012C0.466,0.012 0.571,-0.082 0.571,-0.23L0.571,-0.232C0.571,-0.39 0.462,-0.456 0.326,-0.456C0.287,-0.456 0.262,-0.451 0.234,-0.444L0.242,-0.565L0.54,-0.565L0.54,-0.7L0.11,-0.7L0.09,-0.355L0.179,-0.296C0.212,-0.31 0.252,-0.322 0.296,-0.322C0.369,-0.322 0.42,-0.287 0.42,-0.227L0.42,-0.225C0.42,-0.163 0.375,-0.128 0.303,-0.128C0.241,-0.128 0.189,-0.156 0.136,-0.204L0.043,-0.093C0.111,-0.028 0.193,0.012 0.305,0.012Z" style="fill-rule:nonzero;"/>
        </g>
    </g>
    <g transform="matrix(1,0,0,0.227648,767.985,-21.3173)">
        <path d="M240.015,141.3L240.015,158.871" style="fill:none;stroke:black;stroke-width:2.76px;"/>
    </g>
    <g transform="matrix(1,0,0,1,813.15,-138.854)">
        <g transform="matrix(6,0,0,6,189.609,159.933)">
            <path d="M0.178,0L0.33,0L0.33,-0.705L0.225,-0.705L0.024,-0.645L0.056,-0.519L0.178,-0.549L0.178,0Z" style="fill-rule:nonzero;"/>
        </g>
        <g transform="matrix(6,0,0,6,192.141,159.933)">
            <path d="M0.364,0.012C0.551,0.012 0.676,-0.147 0.676,-0.35L0.676,-0.352C0.676,-0.555 0.551,-0.712 0.366,-0.712C0.18,-0.712 0.054,-0.553 0.054,-0.35L0.054,-0.348C0.054,-0.145 0.177,0.012 0.364,0.012ZM0.366,-0.127C0.273,-0.127 0.212,-0.222 0.212,-0.35L0.212,-0.352C0.212,-0.48 0.272,-0.573 0.364,-0.573C0.456,-0.573 0.518,-0.477 0.518,-0.35L0.518,-0.348C0.518,-0.221 0.459,-0.127 0.366,-0.127Z" style="fill-rule:nonzero;"/>
        </g>
        <g transform="matrix(6,0,0,6,196.521,159.933)">
            <path d="M0.305,0.012C0.466,0.012 0.571,-0.082 0.571,-0.23L0.571,-0.232C0.571,-0.39 0.462,-0.456 0.326,-0.456C0.287,-0.456 0.262,-0.451 0.234,-0.444L0.242,-0.565L0.54,-0.565L0.54,-0.7L0.11,-0.7L0.09,-0.355L0.179,-0.296C0.212,-0.31 0.252,-0.322 0.296,-0.322C0.369,-0.322 0.42,-0.287 0.42,-0.227L0.42,-0.225C0.42,-0.163 0.375,-0.128 0.303,-0.128C0.241,-0.128 0.189,-0.156 0.136,-0.204L0.043,-0.093C0.111,-0.028 0.193,0.012 0.305,0.012Z" style="fill-rule:nonzero;"/>
        </g>
    </g>
    <g transform="matrix(1,0,0,0.227648,799.985,-21.3173)">
        <path d="M240.015,141.3L240.015,158.871" style="fill:none;stroke:black;stroke-width:2.76px;"/>
    </g>
    <g transform="matrix(1,0,0,1,845.135,-138.854)">
        <g transform="matrix(6,0,0,6,189.63,159.933)">
            <path d="M0.178,0L0.33,0L0.33,-0.705L0.225,-0.705L0.024,-0.645L0.056,-0.519L0.178,-0.549L0.178,0Z" style="fill-rule:nonzero;"/>
        </g>
        <g transform="matrix(6,0,0,6,192.162,159.933)">
            <path d="M0.049,0L0.567,0L0.567,-0.133L0.262,-0.133L0.376,-0.221C0.5,-0.317 0.56,-0.375 0.56,-0.492L0.56,-0.494C0.56,-0.625 0.464,-0.71 0.319,-0.71C0.194,-0.71 0.127,-0.659 0.058,-0.565L0.166,-0.478C0.218,-0.542 0.255,-0.572 0.309,-0.572C0.364,-0.572 0.403,-0.54 0.403,-0.481C0.403,-0.423 0.369,-0.385 0.282,-0.313L0.049,-0.122L0.049,0Z" style="fill-rule:nonzero;"/>
        </g>
        <g transform="matrix(6,0,0,6,195.9,159.933)">
            <path d="M0.364,0.012C0.551,0.012 0.676,-0.147 0.676,-0.35L0.676,-0.352C0.676,-0.555 0.551,-0.712 0.366,-0.712C0.18,-0.712 0.054,-0.553 0.054,-0.35L0.054,-0.348C0.054,-0.145 0.177,0.012 0.364,0.012ZM0.366,-0.127C0.273,-0.127 0.212,-0.222 0.212,-0.35L0.212,-0.352C0.212,-0.48 0.272,-0.573 0.364,-0.573C0.456,-0.573 0.518,-0.477 0.518,-0.35L0.518,-0.348C0.518,-0.221 0.459,-0.127 0.366,-0.127Z" style="fill-rule:nonzero;"/>
        </g>
    </g>
    <g transform="matrix(1,0,0,0.227648,863.985,-21.3173)">
        <path d="M240.015,141.3L240.015,158.871" style="fill:none;stroke:black;stroke-width:2.76px;"/>
    </g>
    <g transform="matrix(1,0,0,1,909.135,-138.854)">
        <g transform="matrix(6,0,0,6,189.609,159.933)">
            <path d="M0.178,0L0.33,0L0.33,-0.705L0.225,-0.705L0.024,-0.645L0.056,-0.519L0.178,-0.549L0.178,0Z" style="fill-rule:nonzero;"/>
        </g>
        <g transform="matrix(6,0,0,6,192.141,159.933)">
            <path d="M0.305,0.012C0.466,0.012 0.571,-0.082 0.571,-0.23L0.571,-0.232C0.571,-0.39 0.462,-0.456 0.326,-0.456C0.287,-0.456 0.262,-0.451 0.234,-0.444L0.242,-0.565L0.54,-0.565L0.54,-0.7L0.11,-0.7L0.09,-0.355L0.179,-0.296C0.212,-0.31 0.252,-0.322 0.296,-0.322C0.369,-0.322 0.42,-0.287 0.42,-0.227L0.42,-0.225C0.42,-0.163 0.375,-0.128 0.303,-0.128C0.241,-0.128 0.189,-0.156 0.136,-0.204L0.043,-0.093C0.111,-0.028 0.193,0.012 0.305,0.012Z" style="fill-rule:nonzero;"/>
        </g>
        <g transform="matrix(6,0,0,6,195.921,159.933)">
            <path d="M0.364,0.012C0.551,0.012 0.676,-0.147 0.676,-0.35L0.676,-0.352C0.676,-0.555 0.551,-0.712 0.366,-0.712C0.18,-0.712 0.054,-0.553 0.054,-0.35L0.054,-0.348C0.054,-0.145 0.177,0.012 0.364,0.012ZM0.366,-0.127C0.273,-0.127 0.212,-0.222 0.212,-0.35L0.212,-0.352C0.212,-0.48 0.272,-0.573 0.364,-0.573C0.456,-0.573 0.518,-0.477 0.518,-0.35L0.518,-0.348C0.518,-0.221 0.459,-0.127 0.366,-0.127Z" style="fill-rule:nonzero;"/>
        </g>
    </g>
    <g transform="matrix(1,0,0,0.227648,895.985,-21.3173)">
        <path d="M240.015,141.3L240.015,158.871" style="fill:none;stroke:black;stroke-width:2.76px;"/>
    </g>
    <g transform="matrix(1,0,0,1,941.15,-138.854)">
        <g transform="matrix(6,0,0,6,189.813,159.933)">
            <path d="M0.178,0L0.33,0L0.33,-0.705L0.225,-0.705L0.024,-0.645L0.056,-0.519L0.178,-0.549L0.178,0Z" style="fill-rule:nonzero;"/>
        </g>
        <g transform="matrix(6,0,0,6,192.345,159.933)">
            <path d="M0.339,0.012C0.491,0.012 0.606,-0.087 0.606,-0.23L0.606,-0.232C0.606,-0.378 0.499,-0.455 0.36,-0.455C0.296,-0.455 0.252,-0.435 0.215,-0.41C0.22,-0.471 0.251,-0.572 0.356,-0.572C0.416,-0.572 0.453,-0.551 0.499,-0.516L0.58,-0.635C0.518,-0.684 0.456,-0.712 0.361,-0.712C0.152,-0.712 0.054,-0.546 0.054,-0.33L0.054,-0.328C0.054,-0.189 0.086,-0.114 0.137,-0.063C0.186,-0.014 0.248,0.012 0.339,0.012ZM0.333,-0.12C0.257,-0.12 0.211,-0.165 0.211,-0.224L0.211,-0.226C0.211,-0.285 0.255,-0.327 0.331,-0.327C0.407,-0.327 0.453,-0.284 0.453,-0.225L0.453,-0.223C0.453,-0.163 0.409,-0.12 0.333,-0.12Z" style="fill-rule:nonzero;"/>
        </g>
        <g transform="matrix(6,0,0,6,196.317,159.933)">
            <path d="M0.305,0.012C0.466,0.012 0.571,-0.082 0.571,-0.23L0.571,-0.232C0.571,-0.39 0.462,-0.456 0.326,-0.456C0.287,-0.456 0.262,-0.451 0.234,-0.444L0.242,-0.565L0.54,-0.565L0.54,-0.7L0.11,-0.7L0.09,-0.355L0.179,-0.296C0.212,-0.31 0.252,-0.322 0.296,-0.322C0.369,-0.322 0.42,-0.287 0.42,-0.227L0.42,-0.225C0.42,-0.163 0.375,-0.128 0.303,-0.128C0.241,-0.128 0.189,-0.156 0.136,-0.204L0.043,-0.093C0.111,-0.028 0.193,0.012 0.305,0.012Z" style="fill-rule:nonzero;"/>
        </g>
    </g>
    <g transform="matrix(1,0,0,0.227648,959.985,-21.3173)">
        <path d="M240.015,141.3L240.015,158.871" style="fill:none;stroke:black;stroke-width:2.76px;"/>
    </g>
    <g transform="matrix(1,0,0,1,1005.15,-138.854)">
        <g transform="matrix(6,0,0,6,189.828,159.933)">
            <path d="M0.178,0L0.33,0L0.33,-0.705L0.225,-0.705L0.024,-0.645L0.056,-0.519L0.178,-0.549L0.178,0Z" style="fill-rule:nonzero;"/>
        </g>
        <g transform="matrix(6,0,0,6,192.36,159.933)">
            <path d="M0.306,-0.128C0.247,-0.128 0.204,-0.147 0.153,-0.188L0.072,-0.071C0.131,-0.022 0.2,0.012 0.302,0.012C0.501,0.012 0.608,-0.143 0.608,-0.37L0.608,-0.372C0.608,-0.51 0.575,-0.586 0.525,-0.636C0.472,-0.689 0.417,-0.712 0.323,-0.712C0.165,-0.712 0.056,-0.608 0.056,-0.467L0.056,-0.465C0.056,-0.323 0.154,-0.239 0.306,-0.239C0.366,-0.239 0.412,-0.257 0.448,-0.287C0.442,-0.227 0.412,-0.128 0.306,-0.128ZM0.331,-0.367C0.255,-0.367 0.209,-0.41 0.209,-0.472L0.209,-0.474C0.209,-0.536 0.252,-0.58 0.328,-0.58C0.405,-0.58 0.451,-0.535 0.451,-0.473L0.451,-0.471C0.451,-0.411 0.407,-0.367 0.331,-0.367Z" style="fill-rule:nonzero;"/>
        </g>
        <g transform="matrix(6,0,0,6,196.302,159.933)">
            <path d="M0.305,0.012C0.466,0.012 0.571,-0.082 0.571,-0.23L0.571,-0.232C0.571,-0.39 0.462,-0.456 0.326,-0.456C0.287,-0.456 0.262,-0.451 0.234,-0.444L0.242,-0.565L0.54,-0.565L0.54,-0.7L0.11,-0.7L0.09,-0.355L0.179,-0.296C0.212,-0.31 0.252,-0.322 0.296,-0.322C0.369,-0.322 0.42,-0.287 0.42,-0.227L0.42,-0.225C0.42,-0.163 0.375,-0.128 0.303,-0.128C0.241,-0.128 0.189,-0.156 0.136,-0.204L0.043,-0.093C0.111,-0.028 0.193,0.012 0.305,0.012Z" style="fill-rule:nonzero;"/>
        </g>
    </g>
    <g transform="matrix(1,0,0,0.227648,991.985,-21.3173)">
        <path d="M240.015,141.3L240.015,158.871" style="fill:none;stroke:black;stroke-width:2.76px;"/>
    </g>
    <g transform="matrix(1,0,0,1,1037.06,-138.854)">
        <g transform="matrix(6,0,0,6,189.63,159.933)">
            <path d="M0.049,0L0.567,0L0.567,-0.133L0.262,-0.133L0.376,-0.221C0.5,-0.317 0.56,-0.375 0.56,-0.492L0.56,-0.494C0.56,-0.625 0.464,-0.71 0.319,-0.71C0.194,-0.71 0.127,-0.659 0.058,-0.565L0.166,-0.478C0.218,-0.542 0.255,-0.572 0.309,-0.572C0.364,-0.572 0.403,-0.54 0.403,-0.481C0.403,-0.423 0.369,-0.385 0.282,-0.313L0.049,-0.122L0.049,0Z" style="fill-rule:nonzero;"/>
        </g>
        <g transform="matrix(6,0,0,6,193.368,159.933)">
            <path d="M0.178,0L0.33,0L0.33,-0.705L0.225,-0.705L0.024,-0.645L0.056,-0.519L0.178,-0.549L0.178,0Z" style="fill-rule:nonzero;"/>
        </g>
        <g transform="matrix(6,0,0,6,195.9,159.933)">
            <path d="M0.364,0.012C0.551,0.012 0.676,-0.147 0.676,-0.35L0.676,-0.352C0.676,-0.555 0.551,-0.712 0.366,-0.712C0.18,-0.712 0.054,-0.553 0.054,-0.35L0.054,-0.348C0.054,-0.145 0.177,0.012 0.364,0.012ZM0.366,-0.127C0.273,-0.127 0.212,-0.222 0.212,-0.35L0.212,-0.352C0.212,-0.48 0.272,-0.573 0.364,-0.573C0.456,-0.573 0.518,-0.477 0.518,-0.35L0.518,-0.348C0.518,-0.221 0.459,-0.127 0.366,-0.127Z" style="fill-rule:nonzero;"/>
        </g>
    </g>
    <g transform="matrix(1,0,0,0.227648,1055.98,-21.3173)">
        <path d="M240.015,141.3L240.015,158.871" style="fill:none;stroke:black;stroke-width:2.76px;"/>
    </g>
    <g transform="matrix(1,0,0,1,1101.06,-138.854)">
        <g transform="matrix(6,0,0,6,188.874,159.933)">
            <path d="M0.049,0L0.567,0L0.567,-0.133L0.262,-0.133L0.376,-0.221C0.5,-0.317 0.56,-0.375 0.56,-0.492L0.56,-0.494C0.56,-0.625 0.464,-0.71 0.319,-0.71C0.194,-0.71 0.127,-0.659 0.058,-0.565L0.166,-0.478C0.218,-0.542 0.255,-0.572 0.309,-0.572C0.364,-0.572 0.403,-0.54 0.403,-0.481C0.403,-0.423 0.369,-0.385 0.282,-0.313L0.049,-0.122L0.049,0Z" style="fill-rule:nonzero;"/>
        </g>
        <g transform="matrix(6,0,0,6,192.522,159.933)">
            <path d="M0.398,0L0.545,0L0.545,-0.151L0.639,-0.151L0.639,-0.276L0.545,-0.276L0.545,-0.705L0.415,-0.705L0.031,-0.26L0.056,-0.151L0.398,-0.151L0.398,0ZM0.212,-0.276L0.398,-0.494L0.398,-0.276L0.212,-0.276Z" style="fill-rule:nonzero;"/>
        </g>
        <g transform="matrix(6,0,0,6,196.656,159.933)">
            <path d="M0.364,0.012C0.551,0.012 0.676,-0.147 0.676,-0.35L0.676,-0.352C0.676,-0.555 0.551,-0.712 0.366,-0.712C0.18,-0.712 0.054,-0.553 0.054,-0.35L0.054,-0.348C0.054,-0.145 0.177,0.012 0.364,0.012ZM0.366,-0.127C0.273,-0.127 0.212,-0.222 0.212,-0.35L0.212,-0.352C0.212,-0.48 0.272,-0.573 0.364,-0.573C0.456,-0.573 0.518,-0.477 0.518,-0.35L0.518,-0.348C0.518,-0.221 0.459,-0.127 0.366,-0.127Z" style="fill-rule:nonzero;"/>
        </g>
    </g>
    <g transform="matrix(1,0,0,0.227648,1087.98,-21.3173)">
        <path d="M240.015,141.3L240.015,158.871" style="fill:none;stroke:black;stroke-width:2.76px;"/>
    </g>
    <g transform="matrix(1,0,0,1,1133.07,-138.854)">
        <g transform="matrix(6,0,0,6,189.306,159.933)">
            <path d="M0.049,0L0.567,0L0.567,-0.133L0.262,-0.133L0.376,-0.221C0.5,-0.317 0.56,-0.375 0.56,-0.492L0.56,-0.494C0.56,-0.625 0.464,-0.71 0.319,-0.71C0.194,-0.71 0.127,-0.659 0.058,-0.565L0.166,-0.478C0.218,-0.542 0.255,-0.572 0.309,-0.572C0.364,-0.572 0.403,-0.54 0.403,-0.481C0.403,-0.423 0.369,-0.385 0.282,-0.313L0.049,-0.122L0.049,0Z" style="fill-rule:nonzero;"/>
        </g>
        <g transform="matrix(6,0,0,6,193.044,159.933)">
            <path d="M0.305,0.012C0.466,0.012 0.571,-0.082 0.571,-0.23L0.571,-0.232C0.571,-0.39 0.462,-0.456 0.326,-0.456C0.287,-0.456 0.262,-0.451 0.234,-0.444L0.242,-0.565L0.54,-0.565L0.54,-0.7L0.11,-0.7L0.09,-0.355L0.179,-0.296C0.212,-0.31 0.252,-0.322 0.296,-0.322C0.369,-0.322 0.42,-0.287 0.42,-0.227L0.42,-0.225C0.42,-0.163 0.375,-0.128 0.303,-0.128C0.241,-0.128 0.189,-0.156 0.136,-0.204L0.043,-0.093C0.111,-0.028 0.193,0.012 0.305,0.012Z" style="fill-rule:nonzero;"/>
        </g>
        <g transform="matrix(6,0,0,6,196.824,159.933)">
            <path d="M0.305,0.012C0.466,0.012 0.571,-0.082 0.571,-0.23L0.571,-0.232C0.571,-0.39 0.462,-0.456 0.326,-0.456C0.287,-0.456 0.262,-0.451 0.234,-0.444L0.242,-0.565L0.54,-0.565L0.54,-0.7L0.11,-0.7L0.09,-0.355L0.179,-0.296C0.212,-0.31 0.252,-0.322 0.296,-0.322C0.369,-0.322 0.42,-0.287 0.42,-0.227L0.42,-0.225C0.42,-0.163 0.375,-0.128 0.303,-0.128C0.241,-0.128 0.189,-0.156 0.136,-0.204L0.043,-0.093C0.111,-0.028 0.193,0.012 0.305,0.012Z" style="fill-rule:nonzero;"/>
        </g>
    </g>
    <g transform="matrix(1,0,0,0.227648,1151.98,-21.3173)">
        <path d="M240.015,141.3L240.015,158.871" style="fill:none;stroke:black;stroke-width:2.76px;"/>
    </g>
    <g transform="matrix(1,0,0,1,1197.07,-138.854)">
        <g transform="matrix(6,0,0,6,189.306,159.933)">
            <path d="M0.049,0L0.567,0L0.567,-0.133L0.262,-0.133L0.376,-0.221C0.5,-0.317 0.56,-0.375 0.56,-0.492L0.56,-0.494C0.56,-0.625 0.464,-0.71 0.319,-0.71C0.194,-0.71 0.127,-0.659 0.058,-0.565L0.166,-0.478C0.218,-0.542 0.255,-0.572 0.309,-0.572C0.364,-0.572 0.403,-0.54 0.403,-0.481C0.403,-0.423 0.369,-0.385 0.282,-0.313L0.049,-0.122L0.049,0Z" style="fill-rule:nonzero;"/>
        </g>
        <g transform="matrix(6,0,0,6,193.044,159.933)">
            <path d="M0.315,0.01C0.47,0.01 0.585,-0.066 0.585,-0.196L0.585,-0.198C0.585,-0.281 0.543,-0.326 0.472,-0.363C0.526,-0.396 0.561,-0.441 0.561,-0.516L0.561,-0.518C0.561,-0.626 0.463,-0.71 0.315,-0.71C0.167,-0.71 0.069,-0.625 0.069,-0.518L0.069,-0.516C0.069,-0.441 0.104,-0.396 0.158,-0.363C0.084,-0.329 0.045,-0.279 0.045,-0.194L0.045,-0.192C0.045,-0.07 0.16,0.01 0.315,0.01ZM0.315,-0.414C0.254,-0.414 0.215,-0.451 0.215,-0.5L0.215,-0.502C0.215,-0.545 0.252,-0.583 0.315,-0.583C0.378,-0.583 0.415,-0.544 0.415,-0.501L0.415,-0.499C0.415,-0.45 0.376,-0.414 0.315,-0.414ZM0.315,-0.117C0.239,-0.117 0.194,-0.156 0.194,-0.204L0.194,-0.206C0.194,-0.26 0.245,-0.292 0.315,-0.292C0.385,-0.292 0.436,-0.26 0.436,-0.206L0.436,-0.204C0.436,-0.155 0.391,-0.117 0.315,-0.117Z" style="fill-rule:nonzero;"/>
        </g>
        <g transform="matrix(6,0,0,6,196.824,159.933)">
            <path d="M0.305,0.012C0.466,0.012 0.571,-0.082 0.571,-0.23L0.571,-0.232C0.571,-0.39 0.462,-0.456 0.326,-0.456C0.287,-0.456 0.262,-0.451 0.234,-0.444L0.242,-0.565L0.54,-0.565L0.54,-0.7L0.11,-0.7L0.09,-0.355L0.179,-0.296C0.212,-0.31 0.252,-0.322 0.296,-0.322C0.369,-0.322 0.42,-0.287 0.42,-0.227L0.42,-0.225C0.42,-0.163 0.375,-0.128 0.303,-0.128C0.241,-0.128 0.189,-0.156 0.136,-0.204L0.043,-0.093C0.111,-0.028 0.193,0.012 0.305,0.012Z" style="fill-rule:nonzero;"/>
        </g>
    </g>
    <g transform="matrix(1,0,0,0.227648,1183.98,-21.3173)">
        <path d="M240.015,141.3L240.015,158.871" style="fill:none;stroke:black;stroke-width:2.76px;"/>
    </g>
    <g transform="matrix(1,0,0,1,1229.09,-138.854)">
        <g transform="matrix(6,0,0,6,188.712,159.933)">
            <path d="M0.311,0.012C0.467,0.012 0.563,-0.085 0.563,-0.217L0.563,-0.219C0.563,-0.349 0.47,-0.399 0.375,-0.415L0.552,-0.584L0.552,-0.7L0.079,-0.7L0.079,-0.568L0.354,-0.568L0.187,-0.4L0.211,-0.302L0.275,-0.302C0.361,-0.302 0.412,-0.27 0.412,-0.213L0.412,-0.211C0.412,-0.159 0.371,-0.126 0.313,-0.126C0.242,-0.126 0.192,-0.156 0.144,-0.21L0.038,-0.109C0.098,-0.038 0.185,0.012 0.311,0.012Z" style="fill-rule:nonzero;"/>
        </g>
        <g transform="matrix(6,0,0,6,192.438,159.933)">
            <path d="M0.364,0.012C0.551,0.012 0.676,-0.147 0.676,-0.35L0.676,-0.352C0.676,-0.555 0.551,-0.712 0.366,-0.712C0.18,-0.712 0.054,-0.553 0.054,-0.35L0.054,-0.348C0.054,-0.145 0.177,0.012 0.364,0.012ZM0.366,-0.127C0.273,-0.127 0.212,-0.222 0.212,-0.35L0.212,-0.352C0.212,-0.48 0.272,-0.573 0.364,-0.573C0.456,-0.573 0.518,-0.477 0.518,-0.35L0.518,-0.348C0.518,-0.221 0.459,-0.127 0.366,-0.127Z" style="fill-rule:nonzero;"/>
        </g>
        <g transform="matrix(6,0,0,6,196.818,159.933)">
            <path d="M0.364,0.012C0.551,0.012 0.676,-0.147 0.676,-0.35L0.676,-0.352C0.676,-0.555 0.551,-0.712 0.366,-0.712C0.18,-0.712 0.054,-0.553 0.054,-0.35L0.054,-0.348C0.054,-0.145 0.177,0.012 0.364,0.012ZM0.366,-0.127C0.273,-0.127 0.212,-0.222 0.212,-0.35L0.212,-0.352C0.212,-0.48 0.272,-0.573 0.364,-0.573C0.456,-0.573 0.518,-0.477 0.518,-0.35L0.518,-0.348C0.518,-0.221 0.459,-0.127 0.366,-0.127Z" style="fill-rule:nonzero;"/>
        </g>
    </g>
    <g transform="matrix(1,0,0,0.227648,1215.98,-21.3173)">
        <path d="M240.015,141.3L240.015,158.871" style="fill:none;stroke:black;stroke-width:2.76px;"/>
    </g>
    <g transform="matrix(1,0,0,1,1260.88,-138.854)">
        <g transform="matrix(6,0,0,6,189.219,159.933)">
            <path d="M0.084,0L0.236,0L0.236,-0.445L0.575,0L0.706,0L0.706,-0.7L0.554,-0.7L0.554,-0.269L0.226,-0.7L0.084,-0.7L0.084,0Z" style="fill-rule:nonzero;"/>
        </g>
        <g transform="matrix(6,0,0,6,193.959,159.933)">
            <path d="M0.269,0.005L0.403,0.005L0.561,-0.453L0.719,0.005L0.853,0.005L1.092,-0.7L0.931,-0.7L0.786,-0.226L0.629,-0.702L0.497,-0.702L0.34,-0.226L0.195,-0.7L0.03,-0.7L0.269,0.005Z" style="fill-rule:nonzero;"/>
        </g>
    </g>
    <g transform="matrix(1,0,0,0.227648,1247.98,-21.3173)">
        <path d="M240.015,141.3L240.015,158.871" style="fill:none;stroke:black;stroke-width:2.76px;"/>
    </g>
    <g transform="matrix(1,0,0,1,1293.09,-138.854)">
        <g transform="matrix(6,0,0,6,189.039,159.933)">
            <path d="M0.311,0.012C0.467,0.012 0.563,-0.085 0.563,-0.217L0.563,-0.219C0.563,-0.349 0.47,-0.399 0.375,-0.415L0.552,-0.584L0.552,-0.7L0.079,-0.7L0.079,-0.568L0.354,-0.568L0.187,-0.4L0.211,-0.302L0.275,-0.302C0.361,-0.302 0.412,-0.27 0.412,-0.213L0.412,-0.211C0.412,-0.159 0.371,-0.126 0.313,-0.126C0.242,-0.126 0.192,-0.156 0.144,-0.21L0.038,-0.109C0.098,-0.038 0.185,0.012 0.311,0.012Z" style="fill-rule:nonzero;"/>
        </g>
        <g transform="matrix(6,0,0,6,192.765,159.933)">
            <path d="M0.311,0.012C0.467,0.012 0.563,-0.085 0.563,-0.217L0.563,-0.219C0.563,-0.349 0.47,-0.399 0.375,-0.415L0.552,-0.584L0.552,-0.7L0.079,-0.7L0.079,-0.568L0.354,-0.568L0.187,-0.4L0.211,-0.302L0.275,-0.302C0.361,-0.302 0.412,-0.27 0.412,-0.213L0.412,-0.211C0.412,-0.159 0.371,-0.126 0.313,-0.126C0.242,-0.126 0.192,-0.156 0.144,-0.21L0.038,-0.109C0.098,-0.038 0.185,0.012 0.311,0.012Z" style="fill-rule:nonzero;"/>
        </g>
        <g transform="matrix(6,0,0,6,196.491,159.933)">
            <path d="M0.364,0.012C0.551,0.012 0.676,-0.147 0.676,-0.35L0.676,-0.352C0.676,-0.555 0.551,-0.712 0.366,-0.712C0.18,-0.712 0.054,-0.553 0.054,-0.35L0.054,-0.348C0.054,-0.145 0.177,0.012 0.364,0.012ZM0.366,-0.127C0.273,-0.127 0.212,-0.222 0.212,-0.35L0.212,-0.352C0.212,-0.48 0.272,-0.573 0.364,-0.573C0.456,-0.573 0.518,-0.477 0.518,-0.35L0.518,-0.348C0.518,-0.221 0.459,-0.127 0.366,-0.127Z" style="fill-rule:nonzero;"/>
        </g>
    </g>
    <g transform="matrix(1,0,0,0.227648,1279.98,-21.3173)">
        <path d="M240.015,141.3L240.015,158.871" style="fill:none;stroke:black;stroke-width:2.76px;"/>
    </g>
    <g transform="matrix(1,0,0,1,1325.11,-138.854)">
        <g transform="matrix(6,0,0,6,189.135,159.933)">
            <path d="M0.311,0.012C0.467,0.012 0.563,-0.085 0.563,-0.217L0.563,-0.219C0.563,-0.349 0.47,-0.399 0.375,-0.415L0.552,-0.584L0.552,-0.7L0.079,-0.7L0.079,-0.568L0.354,-0.568L0.187,-0.4L0.211,-0.302L0.275,-0.302C0.361,-0.302 0.412,-0.27 0.412,-0.213L0.412,-0.211C0.412,-0.159 0.371,-0.126 0.313,-0.126C0.242,-0.126 0.192,-0.156 0.144,-0.21L0.038,-0.109C0.098,-0.038 0.185,0.012 0.311,0.012Z" style="fill-rule:nonzero;"/>
        </g>
        <g transform="matrix(6,0,0,6,192.861,159.933)">
            <path d="M0.398,0L0.545,0L0.545,-0.151L0.639,-0.151L0.639,-0.276L0.545,-0.276L0.545,-0.705L0.415,-0.705L0.031,-0.26L0.056,-0.151L0.398,-0.151L0.398,0ZM0.212,-0.276L0.398,-0.494L0.398,-0.276L0.212,-0.276Z" style="fill-rule:nonzero;"/>
        </g>
        <g transform="matrix(6,0,0,6,196.995,159.933)">
            <path d="M0.305,0.012C0.466,0.012 0.571,-0.082 0.571,-0.23L0.571,-0.232C0.571,-0.39 0.462,-0.456 0.326,-0.456C0.287,-0.456 0.262,-0.451 0.234,-0.444L0.242,-0.565L0.54,-0.565L0.54,-0.7L0.11,-0.7L0.09,-0.355L0.179,-0.296C0.212,-0.31 0.252,-0.322 0.296,-0.322C0.369,-0.322 0.42,-0.287 0.42,-0.227L0.42,-0.225C0.42,-0.163 0.375,-0.128 0.303,-0.128C0.241,-0.128 0.189,-0.156 0.136,-0.204L0.043,-0.093C0.111,-0.028 0.193,0.012 0.305,0.012Z" style="fill-rule:nonzero;"/>
        </g>
    </g>
    <g transform="matrix(1,0,0,0.227648,1023.98,-21.3173)">
        <path d="M240.015,141.3L240.015,158.871" style="fill:none;stroke:black;stroke-width:2.76px;"/>
    </g>
    <g transform="matrix(1,0,0,1,1069.03,-138.854)">
        <g transform="matrix(6,0,0,6,189.744,159.933)">
            <path d="M0.333,0.01C0.484,0.01 0.59,-0.068 0.59,-0.207L0.59,-0.209C0.59,-0.331 0.51,-0.382 0.368,-0.419C0.247,-0.45 0.217,-0.465 0.217,-0.511L0.217,-0.513C0.217,-0.547 0.248,-0.574 0.307,-0.574C0.366,-0.574 0.427,-0.548 0.489,-0.505L0.569,-0.621C0.498,-0.678 0.411,-0.71 0.309,-0.71C0.166,-0.71 0.064,-0.626 0.064,-0.499L0.064,-0.497C0.064,-0.358 0.155,-0.319 0.296,-0.283C0.413,-0.253 0.437,-0.233 0.437,-0.194L0.437,-0.192C0.437,-0.151 0.399,-0.126 0.336,-0.126C0.256,-0.126 0.19,-0.159 0.127,-0.211L0.036,-0.102C0.12,-0.027 0.227,0.01 0.333,0.01Z" style="fill-rule:nonzero;"/>
        </g>
        <g transform="matrix(6,0,0,6,193.434,159.933)">
            <path d="M0.269,0.005L0.403,0.005L0.561,-0.453L0.719,0.005L0.853,0.005L1.092,-0.7L0.931,-0.7L0.786,-0.226L0.629,-0.702L0.497,-0.702L0.34,-0.226L0.195,-0.7L0.03,-0.7L0.269,0.005Z" style="fill-rule:nonzero;"/>
        </g>
    </g>
    <g transform="matrix(1,0,0,0.227648,831.985,-21.3173)">
        <path d="M240.015,141.3L240.015,158.871" style="fill:none;stroke:black;stroke-width:2.76px;"/>
    </g>
    <g transform="matrix(1,0,0,1,877.096,-138.854)">
        <g transform="matrix(6,0,0,6,191.025,159.933)">
            <path d="M0.333,0.01C0.484,0.01 0.59,-0.068 0.59,-0.207L0.59,-0.209C0.59,-0.331 0.51,-0.382 0.368,-0.419C0.247,-0.45 0.217,-0.465 0.217,-0.511L0.217,-0.513C0.217,-0.547 0.248,-0.574 0.307,-0.574C0.366,-0.574 0.427,-0.548 0.489,-0.505L0.569,-0.621C0.498,-0.678 0.411,-0.71 0.309,-0.71C0.166,-0.71 0.064,-0.626 0.064,-0.499L0.064,-0.497C0.064,-0.358 0.155,-0.319 0.296,-0.283C0.413,-0.253 0.437,-0.233 0.437,-0.194L0.437,-0.192C0.437,-0.151 0.399,-0.126 0.336,-0.126C0.256,-0.126 0.19,-0.159 0.127,-0.211L0.036,-0.102C0.12,-0.027 0.227,0.01 0.333,0.01Z" style="fill-rule:nonzero;"/>
        </g>
        <g transform="matrix(6,0,0,6,194.865,159.933)">
            <path d="M0.084,0L0.617,0L0.617,-0.137L0.237,-0.137L0.237,-0.284L0.567,-0.284L0.567,-0.421L0.237,-0.421L0.237,-0.563L0.612,-0.563L0.612,-0.7L0.084,-0.7L0.084,0Z" style="fill-rule:nonzero;"/>
        </g>
    </g>
    <g transform="matrix(1,0,0,0.227648,639.985,-21.3173)">
        <path d="M240.015,141.3L240.015,158.871" style="fill:none;stroke:black;stroke-width:2.76px;"/>
    </g>
    <g transform="matrix(1,0,0,1,684.952,-138.854)">
        <g transform="matrix(6,0,0,6,190.575,159.933)">
            <path d="M0.084,0L0.236,0L0.236,-0.445L0.575,0L0.706,0L0.706,-0.7L0.554,-0.7L0.554,-0.269L0.226,-0.7L0.084,-0.7L0.084,0Z" style="fill-rule:nonzero;"/>
        </g>
        <g transform="matrix(6,0,0,6,195.315,159.933)">
            <path d="M0.084,0L0.617,0L0.617,-0.137L0.237,-0.137L0.237,-0.284L0.567,-0.284L0.567,-0.421L0.237,-0.421L0.237,-0.563L0.612,-0.563L0.612,-0.7L0.084,-0.7L0.084,0Z" style="fill-rule:nonzero;"/>
        </g>
    </g>
    <g transform="matrix(1,0,0,0.227648,607.985,-21.3173)">
        <path d="M240.015,141.3L240.015,158.871" style="fill:none;stroke:black;stroke-width:2.76px;"/>
    </g>
    <g transform="matrix(1,0,0,1,652.196,-138.854)">
        <g transform="matrix(6,0,0,6,191.799,159.933)">
            <path d="M0.311,0.012C0.467,0.012 0.563,-0.085 0.563,-0.217L0.563,-0.219C0.563,-0.349 0.47,-0.399 0.375,-0.415L0.552,-0.584L0.552,-0.7L0.079,-0.7L0.079,-0.568L0.354,-0.568L0.187,-0.4L0.211,-0.302L0.275,-0.302C0.361,-0.302 0.412,-0.27 0.412,-0.213L0.412,-0.211C0.412,-0.159 0.371,-0.126 0.313,-0.126C0.242,-0.126 0.192,-0.156 0.144,-0.21L0.038,-0.109C0.098,-0.038 0.185,0.012 0.311,0.012Z" style="fill-rule:nonzero;"/>
        </g>
        <g transform="matrix(6,0,0,6,195.525,159.933)">
            <path d="M0.364,0.012C0.551,0.012 0.676,-0.147 0.676,-0.35L0.676,-0.352C0.676,-0.555 0.551,-0.712 0.366,-0.712C0.18,-0.712 0.054,-0.553 0.054,-0.35L0.054,-0.348C0.054,-0.145 0.177,0.012 0.364,0.012ZM0.366,-0.127C0.273,-0.127 0.212,-0.222 0.212,-0.35L0.212,-0.352C0.212,-0.48 0.272,-0.573 0.364,-0.573C0.456,-0.573 0.518,-0.477 0.518,-0.35L0.518,-0.348C0.518,-0.221 0.459,-0.127 0.366,-0.127Z" style="fill-rule:nonzero;"/>
        </g>
    </g>
    <g transform="matrix(18,0,0,18,1349.9,22.273)">
        <path d="M0.269,0.005L0.403,0.005L0.561,-0.453L0.719,0.005L0.853,0.005L1.092,-0.7L0.931,-0.7L0.786,-0.226L0.629,-0.702L0.497,-0.702L0.34,-0.226L0.195,-0.7L0.03,-0.7L0.269,0.005Z" style="fill-rule:nonzero;"/>
    </g>
</svg>
